# xmcd
#
# Track frame offsets:
#	150
#	20414
#	41503
#	61503
#	78907
#	100174
#	119165
#	137876
#	153033
#	170012
#	189957
#	207833
#	227717
#	246547
#	263077
#	282432
#	300800
#	314713
#	330979
#
# Disc length: 4753 seconds
#
# Revision: 0
# Processed by: cddbd v1.5.1PL0 Copyright (c) Steve Scherf et al.
# Submitted via: dBpowerAMP V4.0
#
DISCID=fe128f13
DTITLE=everyone - country
DYEAR=1900
DGENRE=Country
TTITLE0=bkladjk
TTITLE1=Track0kldjfkl2
TTITLE2=dfsd
TTITLE3=Track04fyhgfg
TTITLE4=Track05erer
TTITLE5=vbnvb
TTITLE6=Track07fgfd
TTITLE7=Track08fdgfd
TTITLE8=fgsd
TTITLE9=fdgrtre
TTITLE10=jghg
TTITLE11=asfd
TTITLE12=erwewe
TTITLE13=jtyfh
TTITLE14=cvcvsd
TTITLE15=Track1were
TTITLE16=Trackwere17
TTITLE17=adfsaffa
TTITLE18=werewgfcv
EXTD=
EXTT0=
EXTT1=
EXTT2=
EXTT3=
EXTT4=
EXTT5=
EXTT6=
EXTT7=
EXTT8=
EXTT9=
EXTT10=
EXTT11=
EXTT12=
EXTT13=
EXTT14=
EXTT15=
EXTT16=
EXTT17=
EXTT18=
PLAYORDER=
